<?xml version="1.0" encoding="utf-8"?>
<!-- Generator: Adobe Illustrator 27.5.0, SVG Export Plug-In . SVG Version: 6.00 Build 0)  -->
<svg version="1.1" xmlns="http://www.w3.org/2000/svg" xmlns:xlink="http://www.w3.org/1999/xlink" x="0px" y="0px"
	 viewBox="0 0 500 500" style="enable-background:new 0 0 500 500;" xml:space="preserve">
<g id="BACKGROUND">
	<rect style="fill:#FFFFFF;" width="500" height="500"/>
</g>
<g id="OBJECTS">
	<ellipse style="fill:#F2EADD;" cx="249.03" cy="423.06" rx="179.087" ry="26.005"/>
	<g>
		<g>
			<path style="fill:#C6BAAF;" d="M331.9,356.156c-0.203,5.227-5.461,13.281-7.993,19.525c-3.142,7.708-10.566,38.754-12.498,44.083
				c-1.922,5.339-12.416,4.088-18.406,4.251c-6,0.152-3.854-0.59-6.213-0.102c-2.349,0.488-17.979-0.915-19.911-1.769
				c-1.922-0.864-1.281-0.651,0.864-6.64c2.135-6,10.484-9.417,15.854-8.989c5.369,0.427,9.833,0.427,11.969-2.359
				c2.146-2.786,4.068-40.463,4.068-40.463c-0.081-0.071-0.173-0.142-0.254-0.234c-0.864,2.115-1.912,3.854-3.071,4.088
				c-3.152,0.641-1.068-7.922-1.068-7.922s-4.81,2.146-6.518,0c-1.139-1.424,2.583-3.498,5.207-4.739
				c-2.736-5.237-5.573-11.206-7.769-13.779c-3.834-4.495-4.18-16.677-6.437-20.541v-0.01c-2.247-3.854-3.203-7.068-6.417-11.023
				c-3.214-3.966-7.891-6.447-12.599-7.373l27.802-15.813l36.395,53.794c0,0,2.99,8.349,6.203,12.854
				C331.717,353.847,331.951,354.925,331.9,356.156z"/>
			<path style="fill:#A5958C;" d="M310.254,419.7c-5.52,5.348-14.364,2.635-21.145,3.467c-7.83,0.96-15.037,0.022-22.515-2.366
				c-1.25-0.399-1.785,1.564-0.541,1.961c7.952,2.539,15.285,3.403,23.596,2.365c7.335-0.916,16.055,1.81,22.043-3.99
				C312.634,420.225,311.195,418.788,310.254,419.7z"/>
			<path style="opacity:0.5;fill:#231508;" d="M331.9,356.156c-2.115,2.034-4.688,3.539-7.556,4.118
				c-8.115,1.658-15.935-4.271-20.653-11.084c-4.718-6.803-7.678-14.837-13.25-20.958c-2.98-3.275-6.671-5.898-10.718-7.668v-0.01
				c-2.247-3.854-3.203-7.068-6.417-11.023c-3.214-3.966-7.891-6.447-12.599-7.373l27.802-15.813l36.395,53.794
				c0,0,2.99,8.349,6.203,12.854C331.717,353.847,331.951,354.925,331.9,356.156z"/>
			<path style="fill:#4D5056;" d="M295.136,414.187c0.539-1.182-1.213-2.217-1.756-1.027c-0.813,1.783-1.627,3.697-1.844,5.66
				c-0.213,1.926,0.563,3.797,1.277,5.546c0.488,1.196,2.456,0.673,1.961-0.541c-0.612-1.5-1.313-3.091-1.195-4.731
				C293.699,417.427,294.45,415.689,295.136,414.187z"/>
			<path style="fill:#4D5056;" d="M280.436,412.446c-4.107,1.509-7.41,6.541-7.257,10.885c0.046,1.305,2.08,1.311,2.034,0
				c-0.117-3.353,2.519-7.731,5.764-8.923C282.195,413.96,281.669,411.993,280.436,412.446z"/>
		</g>
		<g>
			<path style="fill:#EADFD3;" d="M154.807,393.395c-1.739,4.82-3.854,19.108-4.973,20.236c-1.129,1.119-38.378,1.953-38.378,1.953
				s-4.332-0.031-4.973-2.593c-0.651-2.573,1.119-12.844,3.366-14.45c2.247-1.607,5.298-3.691,7.546-3.213
				c2.247,0.478,8.623-1.82,10.759-2.247c1.942-0.386,7.922-17.125,9.193-21.863c-2.156,1.576-4.403,2.868-5.654,2.593
				c-2.817-0.62,4.586-7.434,4.973-7.8c-0.447,0.081-7.708,1.464-7.545-0.712c0.112-1.546,3.996-2.553,6.427-3.041
				c-1.485-4.617-3.356-10.098-4.18-13.281c-1.495-5.776-6.742-23.012-8.674-32.897c-1.922-9.874-10.24-41.51-10.24-41.51
				l47.011,38.713c0,0-0.315,14.125-0.803,20.552c-0.478,6.417,3.854,31.788,4.983,35.48
				C164.762,373.006,156.546,388.585,154.807,393.395z"/>
			<path style="fill:#A5958C;" d="M150.192,413.065c-7.034,0.957-14.103,1.556-21.201,1.718c-3.036,0.07-6.087-0.063-9.119,0.103
				c-3.851,0.211-8.887,2.378-11.995-0.84c-0.911-0.943-2.348,0.496-1.438,1.438c1.535,1.588,3.232,2.341,5.456,2.4
				c4.408,0.118,8.878-1.003,13.347-1.02c8.541-0.033,17.029-0.687,25.49-1.839C152.024,414.85,151.474,412.891,150.192,413.065z"/>
			<path style="fill:#C6BAAF;" d="M157.281,373.155c2.226-0.681,2.439-4.6,2.176-6.428c-0.161-1.119,1.551-1.602,1.714-0.472
				c0.416,2.891-0.087,7.596-3.417,8.615C156.658,375.204,156.189,373.489,157.281,373.155z"/>
			<path style="fill:#4D5056;" d="M113.628,403.732c-2.048,3.244-2.969,6.941-2.655,10.766c0.106,1.295,2.141,1.307,2.034,0
				c-0.288-3.507,0.496-6.76,2.377-9.74C116.085,403.648,114.326,402.627,113.628,403.732z"/>
			<path style="fill:#4D5056;" d="M125.055,407.67c-1.056,2.305-1.642,4.707-1.732,7.242c-0.046,1.309,1.988,1.307,2.034,0
				c0.076-2.163,0.552-4.247,1.454-6.216C127.352,407.515,125.6,406.48,125.055,407.67z"/>
			<path style="fill:#C6BAAF;" d="M139.467,334.069c2.979-0.517,2.548-3.994,2.135-6.209c-0.198-1.06,1.301-1.88,1.859-0.784
				c0.362,0.712,0.792,1.967,1.309,2.573c0.15,0.998,0.53,1.13,1.14,0.395c0.673-0.156,0.9-0.542,0.681-1.16
				c0.368-1.485-0.57-4.275-0.851-5.833c-0.231-1.28,1.729-1.829,1.961-0.541c0.484,2.684,2.276,8.157-0.31,10.319
				c-1.49,1.246-2.697,0.465-3.646-0.837c-0.326,1.963-1.347,3.623-3.738,4.039C138.728,336.253,138.178,334.293,139.467,334.069z"
				/>
		</g>
		<g>
			<path style="fill:#72757A;" d="M422.874,197.108c-6.956,9.986-17.338,16.972-28.687,21.65c-3.407,1.403-6.905,2.603-10.423,3.61
				c2.563,2.227,5.979,3.59,9.294,2.888c-4.901,4.403-11.959,6.264-18.386,4.861c-0.661,4.149-4.454,7.413-8.461,8.674
				c-4.007,1.261-8.522,0.417-12.06-1.841c-3.539-2.258-16.515-12.233-18.009-16.159c14.186-2.207,33.09-7.708,39.283-20.663
				c6.193-12.945,10.779-26.877,6-40.422c-2.654-7.495-7.007-14.735-13.769-18.935c-6.752-4.2-16.23-4.637-22.321,0.488
				c2.42-4.363,6.783-7.607,11.664-8.644c-1.2-3.61-4.952-6.508-8.725-6.996c-3.773-0.488-7.576,0.448-11.257,1.393
				c-5.247,1.352-10.647,2.817-14.938,6.142c-4.281,3.325-7.189,9.02-5.664,14.226c-5.247-10.199-2.979-23.734,5.308-31.666
				c0.01-5.288,2.593-9.976,6.427-13.535c1.82-1.698,3.915-3.132,6.162-4.261c6.966-3.508,15.081-4.017,22.86-3.437
				c17.145,1.271,34.168,7.779,46.533,19.728c12.355,11.949,19.555,29.582,17.267,46.615c2.258-2.146,4.017-5.105,3.518-8.186
				C433.836,165.421,431.924,184.122,422.874,197.108z"/>
			<path style="fill:#EADFD3;" d="M422.874,197.108c-6.956,9.986-17.338,16.972-28.687,21.65c0.315-0.651,0.661-1.281,0.976-1.891
				c2.237-4.363,3.203-9.355,2.766-14.247c-0.254-2.807-0.915-5.847,0.478-8.308c1.393-2.451,6.03-2.746,6.467,0.041
				c4.434-14.481,3.02-30.66-3.854-44.154c-6.874-13.484-19.138-24.141-33.456-29.063c4.129-2.573,9.213-3.579,14.003-2.766
				c-16.484-8.878-34.768-14.42-53.418-16.189c1.82-1.698,3.915-3.132,6.162-4.261c6.966-3.508,15.081-4.017,22.86-3.437
				c17.145,1.271,34.168,7.779,46.533,19.728c12.355,11.949,19.555,29.582,17.267,46.615c2.258-2.146,4.017-5.105,3.518-8.186
				C433.836,165.421,431.924,184.122,422.874,197.108z"/>
			<path style="fill:#4D5056;" d="M323.809,116.372c-10.639,3.825-11.63,18.229-8.831,27.464c0.318,1.049,1.967,0.602,1.647-0.454
				c-2.49-8.215-2.069-21.873,7.638-25.363C325.29,117.65,324.847,115.999,323.809,116.372z"/>
			<path style="fill:#4D5056;" d="M382.217,118.135c-4.325-2.096-11.194-0.057-15.098,2.286c-1.121,0.673-0.1,2.432,1.026,1.756
				c3.122-1.874,9.538-3.986,13.045-2.286C382.364,120.46,383.396,118.707,382.217,118.135z"/>
			<path style="fill:#C6BAAF;" d="M421.423,144.69c-0.559-1.183-2.313-0.151-1.756,1.026c2.012,4.256,1.084,9.388,0.821,13.932
				c-0.076,1.307,1.959,1.303,2.034,0C422.811,154.634,423.641,149.38,421.423,144.69z"/>
			<path style="fill:#C6BAAF;" d="M412.212,172.622c-0.403-1.24-2.367-0.709-1.961,0.541c1.504,4.629,1.525,9.291,0.059,13.931
				c-0.395,1.251,1.568,1.786,1.961,0.541C413.837,182.678,413.818,177.564,412.212,172.622z"/>
			<path style="fill:#C6BAAF;" d="M416.175,176.048c-0.037,1.998-0.389,3.911-1.044,5.797c-0.43,1.239,1.534,1.771,1.961,0.541
				c0.712-2.052,1.077-4.167,1.117-6.337C418.233,174.739,416.199,174.739,416.175,176.048z"/>
			<path style="fill:#72757A;" d="M378.882,194.385c-1.491-4.472-2.782-9.012-3.866-13.6c-0.174-0.737-0.343-1.509-0.164-2.245
				c0.18-0.736,0.822-1.418,1.578-1.376c0.811,0.044,1.353,0.833,1.73,1.552c0.754,1.441,1.374,2.951,1.85,4.506
				c0.509-2.42,1.692-4.695,3.381-6.501c0.461-0.494,1.007-0.976,1.677-1.064c1.318-0.173,2.292,1.204,2.73,2.459
				c1.016,2.911,0.919,6.196-0.265,9.043c-1.185,2.847-3.447,5.23-6.229,6.561L378.882,194.385z"/>
		</g>
		<g>
			<g>
				<path style="fill:#EADFD3;" d="M158.663,298.237c0,0,6.262,21.355,10.918,28.098c4.656,6.744,11.079,11.4,13.006,13.006
					c1.927,1.606,4.014,3.693,4.014,3.693s2.248,20.07,2.248,25.369c0,5.299-1.353,23.202-4.048,28.139
					c-2.695,4.937-2.695,6.864-5.425,8.309c-2.73,1.445-6.904,2.087-9.473,4.656s-5.299,12.684-3.211,14.611
					c2.087,1.927,23.282,0.482,26.814,0.963c3.532,0.482,13.808,1.445,15.254-1.927c1.445-3.372,3.532-17.983,4.014-20.07
					c0.482-2.087,13.862-56.09,10.865-63.369c-2.997-7.279-3.904-5.087-5.352-12.417c-1.448-7.33-0.642-12.203-0.642-12.203
					L158.663,298.237z"/>
				<path style="fill:#A5958C;" d="M207.872,423.295c-5.116,3.792-15.391,1.189-21.453,1.285c-7.167,0.113-15.64,2.431-21.876-1.815
					c-1.14-0.776-2.236,0.988-1.109,1.756c7.112,4.843,16.807,2.066,24.969,2.079c6.787,0.011,15.246,2.413,21.021-1.867
					C210.529,423.915,208.966,422.485,207.872,423.295z"/>
				<path style="fill:#4D5056;" d="M174.25,414.407c-1.858,3.009-3.124,6.276-3.759,9.756c-0.234,1.28,1.726,1.828,1.961,0.541
					c0.608-3.324,1.778-6.393,3.554-9.27C176.696,414.317,174.938,413.294,174.25,414.407z"/>
				<path style="fill:#4D5056;" d="M190.28,413.902c-2.308,3.355-5.21,6.755-5.84,10.902c-0.194,1.28,1.765,1.832,1.961,0.541
					c0.601-3.957,3.43-7.213,5.635-10.417C192.78,413.848,191.018,412.829,190.28,413.902z"/>
				<path style="fill:#C6BAAF;" d="M198.796,354.702c0.665-0.464,1.33-0.928,1.995-1.392c0.139-0.453,0.279-0.906,0.419-1.359
					c0.233-0.755,0.465-1.511,0.698-2.266c0.222-0.719,1.206-0.865,1.601-0.209c1.127,1.868,0.852,3.66,1.366,5.712
					c0.311,1.243,0.644,3.505,2.228,2.121c0.875-0.764,0.974-2.523,1.646-3.531c0.569-0.854,1.764-0.297,1.601,0.675
					c-0.143,0.851-1.077,4.5,1.718,3.449c0.661-0.249,0.592-3.609,0.628-4.27c0.061-1.121,1.814-1.128,1.752,0
					c-0.115,2.099-0.233,7.726-3.629,7.301c-1.447-0.181-2.084-1.258-2.323-2.56c-0.676,1.102-1.574,1.882-2.921,1.428
					c-2.17-0.731-2.428-3.894-2.804-6.505c-0.476,1.589-1.18,3.119-2.556,3.663c-1.492,0.589-2.876-0.256-3.108-1.791
					C196.94,354.065,198.628,353.589,198.796,354.702z"/>
			</g>
		</g>
		<g>
			<path style="fill:#EADFD3;" d="M377.671,299.362c0,0-4.586,1.525-10.504,2.797c-7.637,1.647-17.511,2.857-22.575-0.224
				c-8.99-5.461-54.16-1.393-56.092-1.607c-1.922-0.214-19.26,1.495-24.833,3.213c-5.562,1.708-14.765,4.068-20.765,6.854
				c-5.99,2.776-22.473,8.349-29.968,10.911c-7.495,2.573-44.317,3.59-44.317,3.59c-38.215,0.966-50.255-24.894-51.699-28.738
				c-1.241-3.315-6.661-17.114-8.511-22.219c-0.305-0.824-0.508-1.424-0.59-1.708c-0.142-0.488-0.396-1.2-0.712-2.034
				c-1.037-2.725-2.746-6.834-3.356-9.528c-0.803-3.529,1.281-22.321,1.281-22.321s-5.451,1.607-6.844,1.607
				c-1.393,0-1.932-1.495-0.885-2.674c0.539-0.62,3.386-4.566,5.979-8.186c0.152-0.214,0.305-0.427,0.458-0.641
				c0.6-0.844,1.18-1.647,1.708-2.39c0.132-0.183,0.254-0.356,0.376-0.529c0.315-0.447,0.6-0.844,0.854-1.2
				c0.142-0.203,0.275-0.396,0.397-0.559c0.417-0.59,0.681-0.966,0.732-1.037c-0.417,0.142-9.122,3.356-10.372,1.159
				c-1.281-2.247,7.067-10.169,7.81-10.677c0.752-0.508-0.803-20.145-0.803-20.145c1.139-0.61,2.339-1.159,3.59-1.647
				c15.172-5.969,37.676-3.213,54.597,0.59c13.057,2.929,22.799,6.488,23.328,7.159c0.549,0.681,2.278,1.983,4.637,3.651
				c3.244,2.278,7.657,5.257,11.745,8.227c7.067,5.135,25.372,7.708,36.924,8.349c11.562,0.641,16.697,0.966,21.843,0.966
				c5.135,0,21.518-3.854,29.541-4.495c8.023-0.641,17.338,2.888,24.406,2.888s22.158-3.213,30.832,1.932
				c8.664,5.135,20.867,20.867,23.44,29.541C371.885,258.899,377.671,299.362,377.671,299.362z"/>
			<g>
				<path style="fill:#C6BAAF;" d="M229.647,313.767c-2.239,1.214-4.647,1.902-7.188,2.067c-1.302,0.085-1.245,2.118,0.067,2.033
					c2.894-0.188,5.634-0.984,8.183-2.366C231.862,314.876,230.796,313.144,229.647,313.767z"/>
			</g>
			<path style="fill:#C6BAAF;" d="M170.81,324.319c-3.978-4.557-5.644-10.199-7.317-15.894c-1.734-5.903-3.459-11.808-5.189-17.712
				c-0.367-1.253-2.33-0.72-1.961,0.541c2.041,6.968,4.002,13.966,6.137,20.906c1.532,4.98,3.428,9.628,6.892,13.597
				C170.234,326.745,171.668,325.301,170.81,324.319z"/>
			<g>
				<g>
					<path style="fill:#72757A;" d="M108.405,273.939c-0.305-0.824-0.508-1.424-0.59-1.708c-0.142-0.488-0.396-1.2-0.712-2.034
						c-1.037-2.725-2.746-6.834-3.356-9.528c-0.803-3.529,1.281-22.321,1.281-22.321s-5.451,1.607-6.844,1.607
						c-1.393,0-1.932-1.495-0.885-2.674c0.539-0.62,3.386-4.566,5.979-8.186c0.152-0.214,0.305-0.427,0.458-0.641
						c0.6-0.844,1.18-1.647,1.708-2.39c0.132-0.183,0.254-0.356,0.376-0.529c0.315-0.447,0.6-0.844,0.854-1.2
						c0.142-0.203,0.275-0.396,0.397-0.559c0.417-0.59,0.681-0.966,0.732-1.037c-0.417,0.142-9.122,3.356-10.372,1.159
						c-1.281-2.247,7.067-10.169,7.81-10.677c0.752-0.508-0.803-20.145-0.803-20.145c1.139-0.61,2.339-1.159,3.59-1.647l7.535,0.742
						c-4.861,19.728-4.484,40.717,1.068,60.261c-1.21-0.478-2.42-0.956-3.63-1.434C107.317,254.792,107.941,266.287,108.405,273.939
						z"/>
					<path style="fill:#72757A;" d="M367.168,302.154c5.918-1.271,10.505-2.796,10.505-2.796s-5.786-40.462-8.349-49.127
						c-2.573-8.674-14.776-24.406-23.44-29.541c-8.674-5.146-23.765-1.932-30.832-1.932c-7.068,0-16.382-3.529-24.406-2.888
						c-8.023,0.641-24.406,4.495-29.541,4.495c-5.146,0-10.281-0.325-21.843-0.966c-11.552-0.641-29.856-3.213-36.924-8.349
						c-7.068-5.135-15.091-10.271-16.382-11.877c-0.529-0.671-10.271-4.23-23.328-7.159l-18.884,7.728
						c0,0,10.433,13.952,29.856,15.071c0.58,0.041,1.169,0.061,1.759,0.071c20.552,0.346-11.674,6.018-11.674,6.018
						c7.84,4.81,14.593,3.439,23.724,4.589c-0.417,6.813-1.027,14.359-5.644,19.392c-5.003,5.471-13.199,6.508-19.423,10.555
						l-4.039,35.275c0,0,29.701,9.678,33.911,19.834c4.21,10.156,22.979,42.711,31.06,37.483s-3.325-37.483-3.325-37.483
						s0.238-49.012,8.792-52.339c0,0,17.822,13.974,28.752,12.096c10.931-1.878,31.525,0.594,38.812,3.635
						c7.287,3.041,20.526,8.269,22.936,6.368c2.41-1.901-6.991-12.356-6.991-12.356s18.977,13.307,19.655,9.03
						c0.677-4.277-5.711-16.634-5.711-16.634S356.399,294.171,367.168,302.154z"/>
					<path style="opacity:0.4;fill:#72757A;" d="M190.593,202.823c-20.684,14.745-57.424,36.161-90.88,31.229
						c3.061-4.22,7.881-11.013,8.095-11.318c-0.417,0.142-9.122,3.356-10.372,1.159c-1.281-2.247,7.068-10.169,7.81-10.677
						c0.753-0.508-0.803-20.145-0.803-20.145c1.139-0.61,2.339-1.159,3.59-1.647c15.172-5.969,37.676-3.213,54.597,0.59
						c13.057,2.929,22.799,6.488,23.328,7.159C186.505,199.854,188.234,201.155,190.593,202.823z"/>
				</g>
				<g>
					<path style="fill:#4D5056;" d="M273.62,221.714c-8.859,2.503-17.569,3.715-26.782,3.014
						c-8.923-0.678-18.842-1.696-27.275-4.856c-1.227-0.46-1.757,1.505-0.541,1.961c8.613,3.227,18.671,4.233,27.816,4.928
						c9.418,0.716,18.271-0.53,27.323-3.087C275.418,223.32,274.884,221.357,273.62,221.714z"/>
					<path style="fill:#4D5056;" d="M234.44,227.502c-2.795,0.078-5.468-0.359-8.096-1.308c-1.233-0.445-1.764,1.52-0.541,1.961
						c2.791,1.007,5.672,1.463,8.637,1.38C235.746,229.5,235.752,227.466,234.44,227.502z"/>
					<path style="fill:#4D5056;" d="M327.162,241.21c1.916-0.615,3.381-1.683,2.825-3.544c-0.457-1.529-1.907-2.394-3.657-2.837
						c1.522-0.78,2.541-1.895,2.161-3.496c-1-4.216-7.982-3.001-10.741-2.28c-1.039,0.272-0.598,1.883,0.444,1.61
						c1.156-0.302,2.348-0.58,3.546-0.638c1.804-0.087,2.673-0.23,3.616,1.506c1.097,2.019-0.277,1.915-2.11,2.538
						c-0.486,0.165-0.974,0.291-1.465,0.402c-1.209,0.072-2.303,0.249-3.062,0.468c-0.869,0.251-0.747,1.734,0.222,1.64
						c0.793-0.076,2.176-0.228,3.65-0.534c1.898-0.091,3.93,0.137,4.621,1.261c0.938,1.525-0.804,2.437-1.914,2.709
						c-0.592,0.145-1.206,0.221-1.824,0.269c-0.718-0.035-1.446,0.002-2.191,0.092c-0.016,0-0.032,0.001-0.047,0.001
						c0,0.001,0,0.003,0,0.004c-0.074,0.009-0.148,0.015-0.223,0.026c-0.938,0.129-0.704,1.665,0.222,1.64
						c0.273-0.007,0.649-0.021,1.09-0.047c2.299,0.089,7.302,0.978,5.328,3.122c-1.151,1.251-5.862,1.447-7.32,1.602
						c-1.057,0.112-1.069,1.783,0,1.67c2.2-0.234,10.442-0.641,10.344-3.912C330.637,243.102,328.484,241.833,327.162,241.21z"/>
				</g>
				<path style="fill:#4D5056;" d="M360.336,232.132c-5.575-5.147-11.028-11.176-18.484-13.473c-1.254-0.386-1.79,1.576-0.541,1.961
					c7.076,2.18,12.293,8.062,17.587,12.949C359.859,234.457,361.3,233.023,360.336,232.132z"/>
			</g>
			<path style="fill:#C6BAAF;" d="M123.757,305.349c-2.59-2.859-4.893-5.633-6.154-9.331c-0.994-2.916-3.005-6.302-2.792-9.366
				c0.091-1.306-1.943-1.301-2.034,0c-0.258,3.716,2.009,7.817,3.293,11.185c1.321,3.464,3.795,6.241,6.249,8.949
				C123.2,307.759,124.635,306.318,123.757,305.349z"/>
			<path style="fill:#C6BAAF;" d="M126.229,308.513c-1.309,0-1.311,2.034,0,2.034C127.538,310.547,127.54,308.513,126.229,308.513z"
				/>
		</g>
		<g>
			<g>
				<g>
					<path style="fill:#72757A;" d="M208.44,98.875c-0.152,0.6-0.58,2.664-1.159,5.522c-1.861,9.366-5.217,27.273-5.054,30.222
						c0.214,3.854,0.214,7.067-0.427,7.067c-0.641,0-5.837,0-5.837,0l-36.802-35.968c0,0,7.962-7.057,11.165-10.484
						c3.213-3.427,7.495-9,11.135-12.203c0.712-0.631,2.074-1.637,3.803-2.857c7.047-4.952,20.297-13.372,21.67-14.054
						c1.718-0.864,5.786-2.786,6-1.719C213.148,65.47,209.08,96.302,208.44,98.875z"/>
					<path style="fill:#FCF5EC;" d="M172.012,112.275c0,0,9.13-5.483,9.986-6.661c0.856-1.177,0.214-2.569,2.997-4.603
						c2.783-2.034,8.992-6.208,10.918-8.028c1.927-1.82,6.423-4.924,6.423-4.924s-3.131,24.807-3.131,27.376
						s-2.168,10.437-1.927,11.962c0.241,1.525-1.204,5.7-1.204,5.7s1.606-1.686,2.408-0.803c0.803,0.883-1.927,5.379-2.489,5.539
						c-0.562,0.161-16.565-0.963-16.565-0.963l-7.417-12.772V112.275z"/>
					<path style="opacity:0.4;fill:#72757A;" d="M202.226,134.619c0.214,3.854,0.214,7.067-0.427,7.067c-0.641,0-5.837,0-5.837,0
						l-36.802-35.968c0,0,7.962-7.057,11.165-10.484c3.213-3.427,7.495-9,11.135-12.203c0.712-0.631,2.074-1.637,3.803-2.857
						c5.969,4.637,15.823,13.321,22.016,24.223C205.419,113.763,202.064,131.67,202.226,134.619z"/>
					<path style="fill:#72757A;" d="M174.337,111.019c3.509-3.117,7.909-5.219,12.538-5.991c-1.857,1.772-3.715,3.545-5.572,5.317
						c3.366,1.357,6.372,3.592,8.641,6.425c-5.089-1.407-10.373-2.105-15.652-2.07c-0.103-0.953-0.67-1.781-1.091-2.642
						c-0.421-0.862-0.695-1.92-0.219-2.752c0.363-0.635,1.071-0.975,1.737-1.278c1.767-0.805,3.534-1.609,5.301-2.414
						L174.337,111.019z"/>
				</g>
				<g>
					<path style="fill:#EADFD3;" d="M141.904,102.872c-0.753,2.593-5.603,5.674-11.654,8.573h-0.01
						c-11.491,5.512-27.284,10.362-27.487,9.966c-0.295-0.59-0.173-11.694,0.559-13.891c0.732-2.196,0.976-5.695,2.075-9.04
						c0.661-2.024,1.8-5.023,2.827-8.125c0.671-2.024,1.302-4.088,1.708-5.959c1.048-4.749,1.119-6.508,2.247-10.667
						c1.129-4.169,5.624-12.05,5.766-12.864c0.132-0.814,0.142-3.62,0.163-4.21c0.01-0.285,0.183-2.532,0.437-4.129v-0.01
						c0.264-1.708,0.62-2.644,0.997,0.458c0.722,5.989,3.223,5.278,4.342,6.722c1.118,1.444,7.017,9.406,9.203,14.928
						c1.332,3.376,2.705,7.413,4.078,11.104c0.874,2.349,1.749,4.546,2.613,6.356C141.995,96.729,141.904,102.872,141.904,102.872z"
						/>
					<path style="fill:#72757A;" d="M141.904,102.872c-0.753,2.593-5.603,5.674-11.654,8.573l-5.466,3.696
						c-0.224-0.62-2.337-2.278-2.53-2.675c-0.793-1.525,0.072-8.996-1.484-13.969c-0.793-2.522-0.901-8.963-1.044-11.159
						c-0.142-2.135,1.799-5.312,1.616-7.509c-0.346-4.464-0.681-4.362-1.078-10.098c-0.397-5.756,0.02-6.203,0.315-8.176
						c0.295-1.983-2.044-9.03-2.044-9.03v-0.01c0.264-1.708,0.62-2.644,0.997,0.458c0.722,5.989,3.223,5.278,4.342,6.722
						c1.118,1.444,7.017,9.406,9.203,14.928c1.332,3.376,2.705,7.413,4.078,11.104c0.874,2.349,1.749,4.546,2.613,6.356
						C141.995,96.729,141.904,102.872,141.904,102.872z"/>
					<path style="opacity:0.4;fill:#72757A;" d="M141.904,102.872c-0.753,2.593-5.603,5.674-11.654,8.573h-0.01
						c-11.491,5.512-27.284,10.362-27.487,9.966c-0.295-0.59-0.173-11.694,0.559-13.891c0.732-2.196,0.976-5.695,2.075-9.04
						c0.661-2.024,1.8-5.023,2.827-8.125c4.322-2.186,8.979-3.437,13.454-4.108c5.847-0.885,11.389-0.783,15.487-0.519
						c0.874,2.349,1.749,4.546,2.613,6.356C141.995,96.729,141.904,102.872,141.904,102.872z"/>
				</g>
				<g>
					<path style="fill:#EADFD3;" d="M205.66,184.15c-4.39,1.85-8.79,3.14-8.79,3.14s3.04,0.71,5.83,1.4c2.06,0.5,4,0.99,4.44,1.18
						c0.69,0.27-2.76,3.2-9.19,6.36c-0.25,0.12-0.51,0.26-0.77,0.38c-3.52,1.69-7.85,3.4-12.83,4.82
						c-12.44,3.51-28.98,0.65-40.61-1.68c-2.18-0.44-22.29-1.51-24.07-1.87c-11.24-2.25-28.16-4.19-28.16-4.19
						s-14.25-3.2-17.26-6.44l15.72-33.72h-5.4c1.69-2.44,3.19-6.11,4.62-10.03c0.03-0.09,0.07-0.18,0.1-0.27
						c0.35-0.96,0.7-1.94,1.04-2.91c0.04-0.1,0.08-0.21,0.11-0.31c0.18-0.51,0.36-1,0.53-1.5c0.12-0.33,0.24-0.68,0.36-1.01
						c0.11-0.32,0.22-0.64,0.34-0.95c0.12-0.34,0.24-0.68,0.36-1.01c0.57-1.59,1.14-3.1,1.72-4.48c0.65-1.53,1.3-2.89,1.97-3.98
						c0.02-0.04,0.05-0.07,0.07-0.11c0.25-0.38,0.51-0.77,0.78-1.15c0.95-1.33,2.08-2.6,3.3-3.81c1.42-1.43,2.97-2.76,4.54-4
						c0.02,0,0.02-0.01,0.03-0.01c4.15-3.27,8.37-5.86,10.44-7.45c3.74-2.89,14.98-5.14,14.98-5.14s-3.53-3.21-3.84-3.64
						c-0.33-0.43,7.05,0,10.38,0c3.31,0,14.45,3.1,14.45,3.1c28.52-5.56,40.25,30.84,42.38,33.18c2.15,2.36,5.57,8.14,5.57,8.14
						l-4.71-1.49c0,0,4.06,11.56,7.71,16.48c2.38,3.22,7.07,9.21,10.01,12.95c1.55,1.98,2.62,3.32,2.62,3.32
						C214.75,179.74,210.2,182.24,205.66,184.15z"/>
				</g>
				<g>
					<g>
						<path style="fill:#72757A;" d="M128.465,137.257c0,0,3.174-6.416,9.191-7.842c6.017-1.426,15.386,5.465,14.325,7.129
							C150.921,138.208,136.663,132.267,128.465,137.257z"/>
						<path style="fill:#72757A;" d="M102.25,134.56c-0.68,0.59-4.24-1.88-8.5-3.5c0.65-1.53,1.3-2.89,1.97-3.98
							c0.02-0.04,0.05-0.07,0.07-0.11C99.68,128.75,103.18,133.75,102.25,134.56z"/>
					</g>
					<g>
						<path style="fill:#231508;" d="M125.746,150.602c0,0,3.874-6.997,12.772-6.674c8.898,0.323,12.462,8.878,10.799,8.878
							c-1.663,0-8.465-6.356-12.356-5.376c-3.891,0.98-9.772,4.083-10.485,4.314C125.762,151.974,125.367,151.192,125.746,150.602z"
							/>
						<path style="fill:#231508;" d="M97.96,148.36c-1.22,0-5.2-3.42-8.77-4.86c0.03-0.09,0.07-0.18,0.1-0.27
							c0.35-0.96,0.7-1.94,1.04-2.91c0.04-0.1,0.08-0.21,0.11-0.31C96.92,141.94,99.41,148.36,97.96,148.36z"/>
					</g>
				</g>
				<path style="fill:#72757A;" d="M205.664,184.142c-4.393,1.851-8.786,3.142-8.786,3.142s3.041,0.712,5.827,1.393
					c2.064,0.508,3.996,0.997,4.444,1.18c0.681,0.275-2.766,3.203-9.193,6.366c-0.325,0-0.58,0.122-0.773,0.376
					c-3.519,1.688-7.85,3.407-12.833,4.82c-12.437,3.508-28.971,0.651-40.605-1.678c0.416,0.083,1.52-0.605,1.896-0.755
					c1.73-0.689,3.461-1.379,5.191-2.068c2.301-0.917,4.602-1.832,6.902-2.75c2.262-0.902,4.65-1.431,6.928-2.35
					c4.331-1.747,8.43-3.768,12.752-5.49c0,0-3.498-22.158-3.335-24.69c0.163-2.532,3.315-4.535,3.315-4.535
					s-4.19-41.826-32.325-39.178c-23.89,2.248-36.371,35.242-40.627,33.816c-1.837-4.723,7.309-20.952,7.153-26.747
					c-0.203-7.53-6.894-7.208-7.153-7.001c4.149-3.274,8.369-5.857,10.444-7.454c3.742-2.888,14.979-5.135,14.979-5.135
					s-3.529-3.213-3.844-3.641c-0.325-0.427,7.057,0,10.383,0c3.315,0,14.45,3.102,14.45,3.102
					c28.524-5.562,40.249,30.833,42.385,33.182c2.146,2.359,5.562,8.135,5.562,8.135l-4.708-1.495c0,0,4.068,11.562,7.708,16.484
					c2.39,3.224,7.078,9.213,10.016,12.955c1.546,1.973,2.613,3.315,2.613,3.315C214.755,179.729,210.209,182.231,205.664,184.142z"
					/>
				<g style="opacity:0.65;">
					<path style="fill:#C6BAAF;" d="M140.364,151.752c-2.664-0.075-5.284,0.221-7.867,0.876c-1.247,0.316-0.718,2.246,0.532,1.929
						c2.416-0.613,4.845-0.875,7.335-0.805C141.652,153.788,141.651,151.788,140.364,151.752z"/>
					<path style="fill:#C6BAAF;" d="M138.073,155.223c-0.87-0.111-1.743-0.035-2.59,0.187c-1.244,0.327-0.716,2.257,0.532,1.928
						c0.685-0.18,1.356-0.205,2.059-0.116c0.537,0.068,1-0.509,1-1C139.073,155.626,138.611,155.292,138.073,155.223z"/>
					<path style="fill:#C6BAAF;" d="M91.85,146.491c-0.567-0.4-1.173-0.696-1.821-0.943c-0.505-0.192-1.097,0.213-1.23,0.698
						c-0.155,0.563,0.192,1.037,0.698,1.23c0.481,0.183,0.923,0.445,1.343,0.741c0.441,0.311,1.112,0.079,1.368-0.359
						C92.501,147.359,92.292,146.803,91.85,146.491z"/>
				</g>
			</g>
			<path style="fill:#C6BAAF;" d="M142.422,198.306c-3.957,0.674-8.239-0.089-12.222-0.374c-1.307-0.094-1.473,1.934-0.167,2.027
				c4.176,0.299,8.61,1.053,12.767,0.345C144.091,200.084,143.713,198.086,142.422,198.306z"/>
			<path style="fill:#4D5056;" d="M212.226,63.215c-5.169,3.316-11.285,4.754-15.917,8.864c-0.981,0.87,0.462,2.304,1.438,1.438
				c4.428-3.929,10.527-5.351,15.506-8.545C214.35,64.267,213.332,62.506,212.226,63.215z"/>
			<path style="fill:#231508;" d="M67.042,177.195c0,0,5.255,11.122,9.889,12.459c4.634,1.337,6.75,1.774,6.75,1.774
				s3.189-9.52,5.081-10.191c1.892-0.672,12.537-0.681,15.68-1.791c3.143-1.109,3.473-1.696,3.473-1.696s-19.592,5.606-31.258-2.606
				C76.656,175.143,74.797,176.409,67.042,177.195z"/>
			<g>
				<path style="fill:#F57D48;" d="M90.553,179.207c-6.601,2.092-6.211,11.229-10.216,15.767c-4.008,4.547-8.927,7.779-12.23,6.019
					c-3.313-1.762-1.732-9.938-0.086-14.841c1.654-4.89,12.186-11.723,12.186-11.723l1.676,0.778l1.178,0.536L90.553,179.207z"/>
				<path style="fill:#231508;" d="M83.06,175.743c-3.968,4.29-7.025,9.423-8.841,14.953c-0.138,0.409-0.567,0.616-0.969,0.489
					c-0.39-0.134-0.608-0.555-0.48-0.967c0,0,0,0,0.002-0.01c1.932-5.585,5.079-10.706,9.11-15.002L83.06,175.743z"/>
			</g>
			<path style="fill:#EADFD3;" d="M93.523,149.502c0,0-33.493,8.401-33.731,11.861c-0.238,3.459,1.188,14.865,6.178,15.34
				c4.99,0.475,10.675-1.426,10.675-1.426s8.943,4.99,17.431,4.04s46.27-8.792,46.27-8.792s-20.731-16.571-27.831-17.671
				C105.416,151.753,93.523,149.502,93.523,149.502z"/>
			<path style="fill:#D8C9BA;" d="M166.166,169.736c0.131,2.884-6.114,5.509-13.948,5.863c-7.834,0.354-14.29-1.696-14.421-4.58
				c-0.13-2.884,6.114-5.509,13.948-5.863C159.579,164.802,166.036,166.852,166.166,169.736z"/>
			<path style="fill:#231508;" d="M64.87,159.035c1.089-1.012,15.302-5.628,18.81,0.715c0,0-4.832,10.43-9.986,10.929
				c-5.154,0.499-8.714-8.403-8.882-11.11L64.87,159.035z"/>
			<g>
				<path style="fill:#231508;" d="M89.725,180.195c-4.543,0.001-11.479-3.397-13.089-4.218c-3.549,1.585-7.454,2.235-11.332,1.88
					c-0.413-0.038-0.716-0.403-0.679-0.815s0.396-0.717,0.815-0.679c3.732,0.343,7.502-0.315,10.899-1.899l0.338-0.158l0.33,0.174
					c0.083,0.044,8.442,4.42,13.046,4.208l1.073-0.048c5.601-0.243,18.718-0.813,26.801-4.636c0.375-0.176,0.822-0.016,0.999,0.357
					c0.177,0.374,0.017,0.822-0.357,0.999c-8.356,3.952-21.686,4.531-27.377,4.778l-1.067,0.047
					C89.994,180.192,89.86,180.195,89.725,180.195z"/>
			</g>
			<g>
				<path style="fill:#C6BAAF;" d="M94.992,174.581c-4.439,1.792-8.992,0.498-13.214-1.271c-1.034-0.433-1.719,1.169-0.682,1.604
					c4.641,1.944,9.666,3.254,14.528,1.291C96.665,175.785,96.033,174.161,94.992,174.581z"/>
				<path style="fill:#C6BAAF;" d="M107.166,172.909c-1.916,0.796-3.932,1.149-6.002,1.124c-1.289-0.015-1.314,1.985-0.027,2
					c2.453,0.029,4.769-0.454,7.031-1.393C109.352,174.149,108.342,172.421,107.166,172.909z"/>
			</g>
		</g>
		<g>
			<path style="fill:#EADFD3;" d="M394.846,371.938c0.163,4.495-7.698,2.41-7.698,2.41s1.922,6.101,0.478,7.545
				c-1.119,1.119-4.485-4.942-5.908-7.698c-5.43,15.874-14.908,40.544-15.284,41.307c-0.437,0.864,0.214,9.213-2.359,11.562
				c-2.573,2.359-7.495,3-13.271,2.573c-5.786-0.427-10.922,0.214-15.416,1.495c-4.495,1.291-13.911-2.563-14.989-4.495
				c-1.068-1.922-1.068-5.349,0.427-7.922c1.505-2.563,3.213-1.922,6.854-3.427c3.641-1.495,5.776-2.135,8.989-3.203
				c3.213-1.078,6-10.495,8.115-13.657c2.115-3.152,3.02-12.467,3.02-15.467c0-2.99,1.922-28.046,1.922-28.046
				s-1.068-1.281-2.776-2.135c-1.719-0.854-17.775-7.495-20.979-8.776c-3.213-1.292-6.854-1.719-9-3.214
				c-2.135-1.495-11.338-10.921-16.057-20.338c-4.708-9.417-17.318-22.718-17.318-22.718l78.942,0.641l15.009,0.122l2.797,16.819
				c0,0,5.135-1.505,7.495,0c2.349,1.495-3.641,4.281-3.641,4.281s2.593,0.152,5.074,1.363c0.458,0.214,0.915,0.478,1.353,0.773
				c2.542,1.769-1.546,27.192-5.868,42.822C384.759,364.555,394.694,367.443,394.846,371.938z"/>
			<g>
				<path style="fill:#A5958C;" d="M363.055,425.988c-4.79,5.103-14.548,2.149-20.612,3.402c-4.286,0.886-7.649,3.163-12.176,1.943
					c-3.941-1.062-7.32-3.955-10.526-6.597c-1.058-0.872-2.074,1.117-1.026,1.98c3.593,2.961,7.322,5.996,11.772,6.999
					c3.984,0.899,6.949-0.655,10.765-1.703c7.121-1.955,17.474,1.741,23.241-4.403C365.447,426.594,364.007,424.974,363.055,425.988
					z"/>
			</g>
			<path style="fill:#4D5056;" d="M326.81,418.383c-2.458,3.081-3.398,6.792-2.664,10.671c0.243,1.285,2.204,0.741,1.961-0.541
				c-0.586-3.097,0.172-6.224,2.141-8.692C329.057,418.808,327.627,417.36,326.81,418.383z"/>
			<path style="fill:#4D5056;" d="M341.708,420.641c-2.224,0.07-4.147,1.242-5.226,3.205c-0.536,0.975-0.805,2.084-0.863,3.192
				c-0.027,0.516,0.007,1.024,0.069,1.535c0.086,0.702,0.649,1.903,0.434,2.582c-0.396,1.251,1.567,1.786,1.961,0.541
				c0.448-1.416-0.484-2.884-0.435-4.342c0.08-2.365,1.514-4.599,4.059-4.679C343.013,422.634,343.019,420.6,341.708,420.641z"/>
			<path style="fill:#C6BAAF;" d="M371.675,370.71c-0.304-1.272-2.265-0.734-1.961,0.541c0.453,1.896,0.441,4.066-1.157,5.487
				c-2.63,2.339-4.163,0.072-4.536-2.263c-0.008-0.05-0.01-0.099-0.018-0.149c1.365-2.758,1.608-6.563,1.168-8.801
				c-0.217-1.103-1.619-0.817-1.961,0c-0.752,1.795-1.62,5.288-1.499,8.371c-0.564,0.945-0.911,1.218-2.158,0.335
				c-1.312-0.929-1.212-1.04-1.127-2.479c0.061-1.03,0.219-2.054,0.419-3.066c0.329-1.668,0.841-3.3,1.332-4.925
				c0.38-1.256-1.583-1.792-1.961-0.541c-0.814,2.691-4.714,14.809,1.416,14.447c0.997-0.059,1.84-0.419,2.551-0.978
				c0.493,1.44,1.396,2.549,2.924,2.947C370.366,381.006,372.631,374.715,371.675,370.71z"/>
			<path style="fill:#C6BAAF;" d="M335.229,291.156c-0.089,2.429-0.371,4.812-1.066,7.146c-0.35,1.214-0.798,2.392-1.343,3.534
				c-3.356,1.487-5.684,0.79-6.983-2.09c-0.534-0.745-1.966-0.586-1.895,0.513c0.209,3.216-0.035,7.754-3.691,8.424
				c-2.434,0.447-2.411-0.093-3.783-1.959c-0.926-1.26-1.636-2.487-2.341-3.884c-0.59-1.169-2.345-0.14-1.756,1.026
				c1.417,2.81,4.484,9.063,8.557,8.021c3.418-0.875,4.711-5.273,5.007-8.868c1.917,1.978,4.432,3.461,7.074,1.686
				c3.687-2.475,4.109-9.613,4.253-13.551C337.31,289.847,335.277,289.849,335.229,291.156z"/>
			<path style="fill:#72757A;" d="M389.275,320.956c-3.325,2.644-6.305,6.498-8.552,8.593c-2.247,2.085-3.691,0.956-3.051-0.803
				c0.641-1.769,0.803-8.349,0-9.152c-0.803-0.803-3.691-2.735-5.461-4.82c-1.769-2.085-1.922-3.854-4.271-9.315
				c-2.349-5.461-5.4-7.088-5.4-7.088l15.009,0.122l2.797,16.819c0,0,5.135-1.505,7.495,0c2.349,1.495-3.641,4.281-3.641,4.281
				S386.794,319.746,389.275,320.956z"/>
			<path style="fill:#C6BAAF;" d="M364.186,404.531c-0.171-1.188-1.975-0.683-1.805,0.498c0.68,4.731,0.254,12.275-5.278,14.022
				c-1.145,0.362-0.656,2.169,0.498,1.805C364.248,418.757,365.023,410.356,364.186,404.531z"/>
		</g>
	</g>
</g>
</svg>
