<?xml version="1.0" encoding="UTF-8"?>
<svg version="1.1" viewBox="0 0 1500 1057" width="1500" height="1057" xmlns="http://www.w3.org/2000/svg">
<path transform="translate(713,235)" d="m0 0h13l10 4 8 6 7 7 7 11 11 21 4 1 10-17 10-13 9-9 8-5 6-2h12l9 4 9 7 9 11 9 15 8 16 8 26 7 34 7 38 1 3 39 8 48 12 15 5 5 4 2 5v7l-4 6-6 4h-7l-41-11-36-8-8-2 6 16 5 9 6 5 13 5 24 7 19 8 10 6 10 8 8 10 5 10 2 7 1 11-2 15-5 13-7 13-9 12-9 10-9 9-14 9-16 6-14 3-11 1h-15l-21-2-54-9-7-1h-22l-11 4-6 4-4 7-1 10 4 10 8 6 16 5 20 3 12 1 246 1 7 4 3 5v10l-6 7-6 2h-233l-29-2-19-3-17-5-14-7-8-7-7-10-4-11-1-5v-14l4-13 6-10 9-9 12-7 14-4 8-1h13l25 3 47 8 10 1h24l16-3 12-5 12-9 9-11 3-6 1-5-14-1-10-3-8-5-6-7-3-8v-16l1-12-2-7-3-3-17-6-10-6-8-8-8-13-8-21-4-14-30-4-35-3-25-1v15l-3 21-4 15-6 16-9 17-9 12-11 12-14 11-16 8-15 4h-18l-13-4-9-5-10-9-8-11-7-16-4-18-1-8v-34l1-6-33 11-28 12-15 7h-9l-6-4-3-6 1-9 6-7 28-13 23-9 30-10 7-2h4l2-12 8-30 9-29 11-29 14-29 8-12 11-13 10-7zm108 31-6 5 1 4 9 16 6 13 6 21 6 29 4 20-24-3-32-2h-43l-33 2-35 4-17 3-3 11v3l10-1 35-5 21-2 18-1h51l32 2 38 4-1-10-9-47-6-22-5-13-9-17-9-12zm-83 144-1 1-3 24-5 18-8 16-7 11-11 11-11 7-11 4h-10l-8-4-5-5 2 6 9 10 8 4 5 1h7l13-4 11-6 12-11 9-11 8-14 6-15 4-16 2-20v-7zm-82 79m1 2 1 2z" fill="#ffffff"/>
<path transform="translate(365,696)" d="m0 0h11l6 4 5 6 4 11 1 7v26l-3 18-12 36-7 19-15 32-5 13-3 16 1 13 2 7h10l12-6 12-9 3-2 5-23 9-30 4-13 5-5 9-4h13l3 3v10l-7 26-5 18-5 26v7l1 7h9l10-5 9-7 4-19 6-16 9-17 7-9 9-10 13-9 8-4 8-2h9l7 6v2l13 1 7 2 3 5v13l-6 32-3 17v10l2 6h7l10-6 12-12 6-8 5-36 5-22 5-7 7-3 9 1 4 4 2 5v11l-5 35 4-4 8-19 12-22 6-7 6-3 11-1 6 3 4 7 1 5v8l-6 38-1 10v12l3 10 1 1h7l6-3 9-6h2l1-10 4-15 11-23 8-11 9-10 10-8 12-6 8-2h9l6 5 3 3 4 1h8l6 2 3 5v12l-4 23-5 25v13l2 5h7l11-7 10-10 8-10 2-1 5 22v6l-12 14-10 8-13 7-5 1h-9l-8-4-7-8-3-6v-2l-8 7-11 7-9 4-4 1h-15l-12-6-6-7v-2l-27 13-8 2h-11l-6-5-5-12-2-15v-12l3-27 1-2h-3l-2 6-31 62-5 4-2 1h-9l-5-3-4-5-3-9-13 11-12 6-4 1h-10l-8-4-7-8-3-6v-2h-2l-1 3-12 9-13 6-4 1h-15l-12-6-6-7-1-2-5 2-21 10-11 3h-14l-8-3-6-7-2-6-9 5-14 8-9 3h-9l-8-3-10-9-6-10-10 9-11 7-11 5-4 1h-14l-9-4-7-6-2-5-17 9-13 5-4 1h-11l-7-6-4-10-2-11v-23l3-23h-2l-2 6-23 45-10 19-5 3h-10l-6-4-4-9-1-16 3-36 4-28 4-18 3-6 6-5 9-1 5 2 3 3 2 8-2 20-3 23 3-3 11-24 11-20 8-7 8-2 8 1 5 4 3 6v16l-5 32-1 8v19l3 7 1 1h7l8-5 7-4 1-13 5-16 8-16 6-10 9-10 12-9 13-5 10-1v-11l3-18 9-35 6-16 9-17 9-11 9-8zm-3 29-5 5-4 9-7 28-3 22-2 22v28l3-4 11-30 10-32 4-20 1-19-1-7-2-2zm154 110-10 5-8 7-9 14-7 17-2 10v12l3 8 3 2h8l7-6 7-14 4-16 8-35v-4zm241 0-9 4-9 8-9 14-6 14-3 12v14l4 8 2 1h8l6-5 6-10 5-16 8-36 1-8zm-449 1-10 7-8 9-7 15-6 18-1 13 3 6 4 2h12l10-9 6-10 1-2-1-49z" fill="#ffffff"/>
<path transform="translate(768)" d="m0 0h13l11 3 12 6 10 8 11 11 11 15 14 22 11 17 75 120 12 19 15 24 10 14 7 8 6 4h7l8-7 12-19 14-25 9-14 7-8 10-7 9-4 5-1h13l12 4 13 9 10 11 9 14 15 26 40 72 5 13v15l-4 10-7 9-9 9-14 9-11 5-9 2h-13l-10-3-9-6-8-9-8-12-4-4h-4l-2 4-12 17-9 10-9 7-8 3h-11l-10-4-10-7-10-10-2-9 3-7 6-5h10l8 6 6 5 7 1 9-10 8-12 9-10 9-6 5-2h11l12 6 11 11 11 15 2 2 8 1 11-4 9-6 7-7 1-2v-10l-6-13v-2l-8 7-8 5-3 1h-11l-10-5-10-9-9-7-9-4h-11l-8 4-11 11-10 7-5 2h-10l-8-7-5-10-4-16v-5l-10 4h-15l-12-5-9-7-10-10-11-15-24-38-60-96-13-21-7 6-10 7-12 3-11-2-10-7-8-8-11-7-6-2h-10l-8 4-15 15-10 7-7 3h-8l-7-4-6-9-7 10-1 7 4 9 7 7 9 5 6 2 9-1 5-5 10-13 10-10 12-6h13l12 6 12 12 9 12 7 8h6l10-8 5-2 8 1 6 5 2 4v8l-4 6-9 9-10 6-9 2-9-1-10-5-11-10-13-17-5-6-5-1-6 5-11 16-9 8-12 5h-18l-13-4-12-7-10-9-8-10-5-11-1-4v-17l4-10 26-36 22-33 11-14 14-14 11-7 9-4z" fill="#ffffff"/>
<path transform="translate(331,381)" d="m0 0 8 1 7 6 1 3v8l-7 14-10 18-13 24-12 22-28 52-13 23-14 26-10 19-5 14-2 10v8l3 10 7 7 11 5 13 3 8 1h115l14-4 10-6 8-7 8-13 5-14 4-19 1-15-7 8-13 11-15 9-14 6-9 3-9-1-6-5-2-6 1-8 4-5 12-5 17-8 13-10 8-8 10-14 7-15 3-12 1-9-13 10-16 8-8 3h-10l-5-3-4-8 1-8 6-7 15-6 10-6 9-8 7-10 7-14 4-10 6-4 8-1 6 3 4 5 7 16 7 11 6 7 11 8 13 6 9 4 4 6v9l-3 5-5 4-7 1-15-5-16-9-10-8 3 19 7 16 8 12 11 12 10 8 17 9 12 4 5 4 3 7-1 8-5 6-5 2-9-1-16-6-16-9-10-8-10-9-3-4 1 14 4 20 6 16 9 13 10 8 12 5 8 2 169 1 8 4 3 5 1 6-3 8-5 4-3 1h-168l-19-3-13-5-11-6-12-11-8-11-3-5v-2h-2l-2 6-9 12-9 9-14 8-13 5-19 3h-108l-18-2-16-4-12-5-11-7-8-8-7-12-3-12v-18l4-17 5-13 8-16 14-26 10-18 26-48 14-26 12-22 16-29 8-14 6-5z" fill="#ffffff"/>
<path transform="translate(1190,811)" d="m0 0 9 1 4 4 1 3v17l-4 31 3-3 9-21 13-23 8-7 8-2 8 1 5 4 3 7v15l-5 31-1 8v20l2 8h8l8-4 9-6 5-2-1-3v-15l4-17 6-16 8-13 10-10 11-6 10-2h8l11 3 9 6 6 8 2 5 1 12-4 13-7 11-7 8-12 9-17 8-6 1 6 8 3 2h15l15-5 16-9 12-9 10-9 11-14 16-21 12-16 5-6 9-5h13l7 4 2 8-3 8-11 13-1 1v11l5 19v17l-1 11 21-11 14-7 7-5h2v28l-14 9-20 9-20 6-15 3h-26l-10-3-8-5-5-8-2-4-10 7-17 8-16 4h-17l-13-4-11-8-4-5v-2l-23 12-15 6-4 1h-11l-7-6-4-9-2-11v-25l3-22-3 3-32 64-7 6h-10l-6-4-3-5-2-12v-12l3-33 1-4-4-2-13-13-16-11 3 10 2 8 1 9v12l-3 16-6 14-7 10-9 9-14 7-4 1h-16l-10-4-8-6-7-9-5-12-3-16v-16l3-17 5-12 6-9 7-8 11-7 10-4 10-2h16l16 4 16 8 11 9 10 11 5-22 4-6 5-4zm144 24-8 3-7 8-6 15-1 4v10l8-1 11-6 9-9 5-9-1-10-5-5zm-233 1-7 4-8 11-5 13-2 10v18l3 10 4 5 6 3h8l6-4 7-11 4-13 2-13v-13l-3-12-6-7-2-1zm324 32-14 15-7 7-3 7-7 6 2 4 9 7 5 2 9-1 7-6 2-5v-33l-1-3z" fill="#ffffff"/>
<path transform="translate(637,157)" d="m0 0 9 1 5 4 2 4v10l-10 16-11 17-24 36-17 25-9 11-7 10-9 13-8 10-9 10-9 8-10 6-12 3-12-2-11-7-11-11-11-7-10-3-11 1-8 5-14 14-12 9-8 4-3 1h-10l-6-4-6-9-3 3-3 6v7l6 9 10 7 10 3h8l6-3 14-18 9-9 12-6h11l12 6 9 9 11 16 5 6v2l8 1 6-4 8-7 2-1h9l5 3 4 5v11l-7 8-9 8-12 6-3 1h-11l-10-4-12-11-10-13-8-11-4-2-5 5-8 12-9 10-8 5-10 3h-18l-14-4-11-6-11-9-8-11-4-8-2-9v-8l2-9 13-24 14-24 15-27 16-27 9-15 11-13 10-8 10-5 7-2h13l10 3 10 6 7 6 9 12 16 29 12 19 8 9 2 1h7l9-7 10-13 38-57 16-25 6-8 4-3z" fill="#ffffff"/>
<path transform="translate(1196,373)" d="m0 0 9 1 6 5 15 28 13 23 10 19 13 23 17 32 10 18 32 58 8 21 3 14v17l-3 12-6 11-9 10-13 8-14 5-13 3-22 2h-76l-15-2-15-4-11-6-10-9-7-11-5-13-3-15-1-12-1-32-11 11-14 10-15 8-17 6-9-1-5-4-2-4v-10l4-6 24-10 12-8 10-9 9-10 8-13 5-15 1-6v-10l-13 10-19 9-10 2-8-3-4-6-1-8 3-6 5-4 15-6 11-7 9-9 8-13 7-16 5-5 5-2 8 1 6 5 9 20 8 11 9 9 14 8 12 5 5 5 1 2v10l-6 7-9 2-15-5-11-6-12-9-2-2v11l4 14 7 13 8 10 13 13 14 9 15 7 11 4 6 7v10l-4 6-7 3-9-1-20-8-14-8-14-11-11-11v21l1 20 3 13 6 11 7 6 10 5 14 3 12 1h31l39-1 19-3 12-5 6-4 4-5 2-5 1-10-2-12-6-16-13-25-13-23-14-26-13-23-16-30-13-23-15-28-13-23-1-9 3-6 5-4z" fill="#ffffff"/>
<path transform="translate(938,718)" d="m0 0 25 1 24 4 21 6 17 7 14 8 12 11 6 8 3 9v9l-3 12-6 11-10 10-14 8-14 5-15 3 12 4 11 7 8 10 5 12 2 10v14l-4 16-7 13-11 12-8 6-14 7-14 4-7 1h-25l-27-4-23-6-12-4-3-4v-29l2-36 4-31 6-25 6-16 9-17 5-5 9-4h8l6 3 5 5-1 5-8 16-5 13-4 18-3 22-2 29v37l3 3 15 4 6 1h22l16-4 11-6 6-5 7-11 3-11v-17l-4-8-8-7-13-5-24-7-9-6-3-5-1-8 2-6 4-2h33l15-3 16-8 8-9 4-10v-10l-3-6-8-7-14-6-18-4-19-2h-25l-18 2-17 4-14 6-9 7-10 17-9 11-5 3-5-1-2-3-1-5 1-16 4-13 6-11 8-9 10-7 14-7 13-4 17-3z" fill="#ffffff"/>
<path transform="translate(717,263)" d="m0 0h6l7 7 8 14 7 13 7 9 8 5 7 2h11l9-3 6-5 16-26 5-7 4 5 8 14 6 13 6 21 6 29 3 17v3l-14-1-23-2-19-1h-43l-33 2-35 4-16 2 2-10 8-26 9-25 8-18 10-19 10-13z" fill="#AB9165"/>
<path transform="translate(462,213)" d="m0 0 7 1 8 6 7 10 15 27 12 19 8 10 9 8 8 4 4 1h13l11-4 10-7 3-2-2 5-9 13-8 10-9 10-9 8-10 6-12 3-12-2-11-7-11-11-11-7-10-3-11 1-8 5-14 14-12 9-8 4-3 1h-10l-6-4-6-9 1-6 15-27 16-28 14-24 11-18 11-12z" fill="#D5E5F3"/>
<path transform="translate(109,719)" d="m0 0h23l13 2 8 4 2 2 1 9-3 7-8 4-6 1h-18l-1 8-11 46-13 56-14 55-1 2 11 1 11 3 6 3 4 5-2 6-6 5h-105l6-7 3-7 6-4 14-4 14-2 2-1 15-60 7-30 16-58 5-15-19 4-17 6h-2l-1-8v-9l4-7 10-7 13-5 14-3z" fill="#ffffff"/>
<path transform="translate(1071,213)" d="m0 0 7 1 8 5 9 10 9 15 16 28 15 27 12 21-2 4-9 8-7 3h-11l-10-5-10-9-9-7-9-4h-11l-8 4-11 11-10 7-5 2h-10l-8-7-5-10-4-16-1-6 9-7 8-9 12-19 14-25 6-10 7-8z" fill="#D5E5F4"/>
<path transform="translate(773,27)" d="m0 0 11 2 10 7 12 12 16 24 16 25 5 8-1 4-7 7-8 5-12 3-11-2-10-7-8-8-11-7-6-2h-10l-8 4-15 15-10 7-7 3h-8l-7-4-6-10 6-9 13-18 21-31 7-9 8-9 10-7z" fill="#D5E5F3"/>
<path transform="translate(723,411)" d="m0 0h14v11l-3 18-6 18-8 15-8 10-9 9-11 7-11 4h-10l-8-4-5-6v-2l-2-1-4-16-1-11v-18l2-20 1-3 12-3 30-5z" fill="#AB9165"/>
<path transform="translate(843,988)" d="m0 0h6l5 5 26 39v2h2v-43l3-3h6l3 4v60l-4 5h-7l-5-5-7-10-15-23-4-6-1 38-3 5-1 1-7-1-2-3v-60z" fill="#ffffff"/>
<path transform="translate(1074,989)" d="m0 0h35l8 3 6 7 1 3v11l-4 7-6 4-5 2 8 8 8 14v6l-3 3h-6l-5-5-11-18-5-5-12-2v26l-4 4-7-1-2-3v-60zm9 10v18l1 1h12l11-2 3-3v-9l-4-4-3-1z" fill="#ffffff"/>
<path transform="translate(341,988)" d="m0 0h16l10 4 8 7 4 7 3 12v8l-2 11-5 9-8 7-11 4h-14l-11-4-8-7-4-6-3-12v-12l4-13 6-8 8-5zm2 11-7 4-5 8-1 4v14l3 9 8 7 3 1h10l6-3 5-6 3-9v-11l-3-10-5-5-5-3z" fill="#ffffff"/>
<path transform="translate(617,989)" d="m0 0h30l9 3 8 7 5 10 1 5v17l-4 12-7 8-8 4-5 1h-28l-4-2-1-2v-59zm9 11v45h18l6-3 4-5 2-6v-18l-4-8-5-4-3-1z" fill="#ffffff"/>
<path transform="translate(427,988)" d="m0 0h17l10 4 6 5 3 6-1 6-5 3-5-2-5-6v-2l-9-3-10 1-7 4-4 7-1 4v15l3 8 5 5 4 2 8 1 10-2 5-2 1-11h-14l-4-4 2-5 1-1h24l4 4v20l-4 5-10 5-9 2h-14l-10-3-8-6-6-9-3-10v-13l4-13 8-9 10-5z" fill="#ffffff"/>
<path transform="translate(244,989)" d="m0 0h30l9 3 8 7 4 8 2 9v12l-3 12-6 9-8 5-7 2h-28l-4-2-1-2v-60zm9 11v45h18l6-3 5-8 1-5v-14l-3-9-6-5-3-1z" fill="#ffffff"/>
<path transform="translate(1152,989)" d="m0 0h43l3 3-1 6-1 1h-35v17h32l2 2v6l-3 2h-31v19h34l4 3v5l-4 3h-43l-4-3-1-5v-51l2-6z" fill="#ffffff"/>
<path transform="translate(992,988)" d="m0 0h6l3 3 1 2 1 43 3 6 5 3h11l5-3 3-7 1-43 4-4h6l3 3 1 3v38l-2 11-4 6-6 5-9 3h-14l-10-3-6-4-5-10-1-7v-39l3-5z" fill="#ffffff"/>
<path transform="translate(1237,988)" d="m0 0h15l8 3 6 5 2 4v7l-3 3h-6l-7-10-6-2-9 1-4 4v5l3 3 23 7 9 6 3 6v11l-4 8-5 4-6 3-5 1h-13l-9-3-8-7-3-6v-6l3-3 4-1 5 4 4 8 5 3h10l6-3 2-3-1-7-3-3-20-6-8-4-4-5-2-6 1-9 4-6 6-4z" fill="#ffffff"/>
<path transform="translate(769,989)" d="m0 0h43l3 2v6l-2 2-34 1v15l31 1 3 3-1 5-2 2h-32v19h35l3 2v7l-3 2h-43l-4-2-1-2v-59z" fill="#ffffff"/>
<path transform="translate(557,988)" d="m0 0h8l5 5 15 36 7 18v7l-4 3h-5l-4-5-4-10v-2h-28l-3 10-3 6-7 1-4-5 2-9 20-50zm3 15-9 25v2h20l-3-10-6-16z" fill="#ffffff"/>
<path transform="translate(689,988)" d="m0 0h6l3 3 6 16 10 30v3h2l3-11 13-38 3-3h6l3 3v7l-19 51-4 6-3 2h-6l-5-3-5-12-16-44v-7z" fill="#ffffff"/>
<path transform="translate(430,756)" d="m0 0h7l10 3 5 4 3 8-1 11-5 8-8 5-3 1h-15l-8-4-4-5-2-11 3-9 5-6 8-4z" fill="#ffffff"/>
<path transform="translate(916,989)" d="m0 0h50l4 4-1 5-3 2h-18v52l-2 4-7 1-4-3-1-4v-50h-18l-3-3 1-7z" fill="#ffffff"/>
<path transform="translate(833,442)" d="m0 0 9 2 5 5 3 6v9l-4 8-5 4-9 1-8-4-4-6-1-4v-7l4-8 6-5z" fill="#ffffff"/>
</svg>
